<?xml version="1.0" encoding="utf-8"?>
<!-- Generator: Adobe Illustrator 25.2.1, SVG Export Plug-In . SVG Version: 6.00 Build 0)  -->
<svg version="1.1" id="Layer_1" xmlns="http://www.w3.org/2000/svg" xmlns:xlink="http://www.w3.org/1999/xlink" x="0px" y="0px"
	 viewBox="0 0 46.3 20" style="enable-background:new 0 0 46.3 20;" xml:space="preserve">
<style type="text/css">
	.st0{fill:#FFFFFF;}
</style>
<g>
	<path class="st0" d="M7.6,7.9C7.3,7.1,7,6.5,6.5,6.1S5.3,5.6,4.4,5.6c-0.6,0-1.1,0.1-1.5,0.3S2,6.5,1.8,6.9
		C1.5,7.3,1.3,7.8,1.1,8.3C1,8.8,0.9,9.4,0.9,10s0.1,1.1,0.2,1.7c0.1,0.6,0.3,1,0.6,1.4c0.2,0.4,0.7,0.8,1.1,1s1,0.4,1.7,0.4
		c0.8,0,1.5-0.2,2.1-0.8s0.9-1.2,1.1-2h1c-0.1,0.5-0.3,0.9-0.5,1.4s-0.5,0.8-0.8,1.1S6.5,14.8,6,15s-1.1,0.3-1.7,0.3
		c-0.8,0-1.4-0.1-2-0.4s-1-0.6-1.4-1.1s-0.6-1.1-0.8-1.7C0.1,11.4,0,10.8,0,10c0-0.9,0.1-1.7,0.3-2.4s0.6-1.2,1-1.6
		c0.5-0.4,0.9-0.7,1.5-0.9C3.3,4.9,4,4.8,4.7,4.8c1,0,1.9,0.2,2.6,0.8s1.1,1.3,1.2,2.3C8.5,7.9,7.6,7.9,7.6,7.9z"/>
	<path class="st0" d="M10.4,15V5h0.9v10H10.4z"/>
	<path class="st0" d="M13.9,11.6c0,0.8,0.2,1.5,0.6,2.1c0.4,0.6,1,0.8,1.8,0.8c0.5,0,1-0.1,1.4-0.4s0.6-0.7,0.8-1.2h1
		c-0.2,0.8-0.6,1.4-1.1,1.8c-0.5,0.4-1.1,0.6-2,0.6c-0.6,0-1.1-0.1-1.4-0.3s-0.8-0.4-1.1-0.8c-0.2-0.4-0.4-0.8-0.6-1.2
		c-0.2-0.5-0.3-1-0.3-1.6s0.1-1,0.2-1.5c0.1-0.4,0.4-0.9,0.6-1.2c0.3-0.3,0.6-0.6,1.1-0.8c0.4-0.2,0.9-0.3,1.4-0.3
		c1,0,1.8,0.3,2.3,1.1s0.9,1.6,0.9,2.9H13.9z M18.6,10.9c0-0.8-0.2-1.3-0.6-1.8s-1-0.7-1.7-0.7c-0.7,0-1.2,0.2-1.6,0.7
		c-0.4,0.4-0.6,1.1-0.8,1.8C13.9,10.9,18.6,10.9,18.6,10.9z"/>
	<path class="st0" d="M24.4,10.8c0.2,0,0.4-0.1,0.6-0.1s0.4-0.1,0.5-0.1s0.2-0.2,0.2-0.3c0-0.2,0-0.3,0-0.4c0-0.4-0.1-0.8-0.5-1.1
		S24.6,8.4,24,8.4s-1.1,0.1-1.5,0.4S22,9.4,21.9,10H21c0-0.8,0.4-1.4,0.9-1.8c0.5-0.4,1.2-0.6,2-0.6s1.5,0.2,1.9,0.6
		c0.5,0.3,0.7,0.9,0.7,1.7v4c0,0.4,0.1,0.6,0.4,0.6c0.1,0,0.3-0.1,0.5-0.1V15c-0.1,0.1-0.2,0.1-0.4,0.1c-0.1,0.1-0.2,0.1-0.3,0.1
		c-0.1,0-0.2,0-0.4-0.1c-0.2-0.1-0.4-0.1-0.5-0.4s-0.1-0.4-0.1-0.8c-0.4,0.4-0.8,0.7-1.2,0.9s-1,0.3-1.5,0.3c-0.6,0-1.2-0.2-1.7-0.6
		s-0.7-0.9-0.7-1.5c0-1.2,0.9-1.9,2.5-2.2H24.4z M25.8,11.2c-0.3,0.1-0.6,0.2-1,0.2c-0.3,0.1-0.7,0.1-1.2,0.1
		c-0.6,0.1-1.1,0.2-1.5,0.4s-0.5,0.6-0.5,1.1c0,0.4,0.1,0.8,0.5,0.9c0.3,0.2,0.6,0.4,1.1,0.4c0.4,0,0.6-0.1,1-0.1
		c0.3-0.1,0.6-0.2,0.9-0.4c0.2-0.1,0.5-0.4,0.6-0.6s0.2-0.6,0.2-0.9L25.8,11.2L25.8,11.2z"/>
	<path class="st0" d="M29.7,15h-0.9V7.8h0.9v1.3l0,0C30,8.6,30.2,8.2,30.6,8s0.9-0.3,1.4-0.3v0.9c-0.5,0-0.9,0.1-1.1,0.2
		c-0.3,0.1-0.5,0.3-0.8,0.6s-0.3,0.6-0.4,0.9c0,0.4-0.1,0.8-0.1,1.2L29.7,15L29.7,15z"/>
</g>
<rect x="45.3" y="0" class="st0" width="1" height="20"/>
</svg>
