<?xml version="1.0" encoding="utf-8"?>
<!-- Generator: Adobe Illustrator 25.2.1, SVG Export Plug-In . SVG Version: 6.00 Build 0)  -->
<svg version="1.1" id="Layer_1" xmlns="http://www.w3.org/2000/svg" xmlns:xlink="http://www.w3.org/1999/xlink" x="0px" y="0px"
	 viewBox="0 0 59.6 20" style="enable-background:new 0 0 59.6 20;" xml:space="preserve">
<style type="text/css">
	.st0{fill:#D8D8D8;}
</style>
<g>
	<path d="M20.9,7.9c-0.3-0.8-0.6-1.4-1.1-1.8s-1.2-0.5-2.1-0.5c-0.6,0-1.1,0.1-1.5,0.3s-0.9,0.6-1.1,1c-0.3,0.4-0.5,0.9-0.7,1.4
		c-0.1,0.5-0.2,1.1-0.2,1.7s0.1,1.1,0.2,1.7c0.1,0.6,0.3,1,0.6,1.4c0.2,0.4,0.7,0.8,1.1,1c0.4,0.2,1,0.4,1.7,0.4
		c0.8,0,1.5-0.2,2.1-0.8s0.9-1.2,1.1-2h1c-0.1,0.5-0.3,0.9-0.5,1.4c-0.2,0.5-0.5,0.8-0.8,1.1s-0.9,0.6-1.4,0.8s-1.1,0.3-1.7,0.3
		c-0.8,0-1.4-0.1-2-0.4s-1-0.6-1.4-1.1c-0.4-0.5-0.6-1.1-0.8-1.7c0-0.7-0.1-1.3-0.1-2.1c0-0.9,0.1-1.7,0.3-2.4s0.6-1.2,1-1.6
		c0.5-0.4,0.9-0.7,1.5-0.9c0.5-0.2,1.2-0.3,1.9-0.3c1,0,1.9,0.2,2.6,0.8c0.7,0.6,1.1,1.3,1.2,2.3C21.8,7.9,20.9,7.9,20.9,7.9z"/>
	<path d="M23.7,15V5h0.9v10H23.7z"/>
	<path d="M27.2,11.6c0,0.8,0.2,1.5,0.6,2.1c0.4,0.6,1,0.8,1.8,0.8c0.5,0,1-0.1,1.4-0.4s0.6-0.7,0.8-1.2h1c-0.2,0.8-0.6,1.4-1.1,1.8
		c-0.5,0.4-1.1,0.6-2,0.6c-0.6,0-1.1-0.1-1.4-0.3s-0.8-0.4-1.1-0.8c-0.2-0.4-0.4-0.8-0.6-1.2c-0.2-0.5-0.3-1-0.3-1.6s0.1-1,0.2-1.5
		c0.1-0.4,0.4-0.9,0.6-1.2c0.3-0.3,0.6-0.6,1.1-0.8c0.4-0.2,0.9-0.3,1.4-0.3c1,0,1.8,0.3,2.3,1.1c0.5,0.8,0.9,1.6,0.9,2.9H27.2z
		 M31.9,10.9c0-0.8-0.2-1.3-0.6-1.8s-1-0.7-1.7-0.7S28.4,8.6,28,9.1c-0.4,0.4-0.6,1.1-0.8,1.8C27.2,10.9,31.9,10.9,31.9,10.9z"/>
	<path d="M37.7,10.8c0.2,0,0.4-0.1,0.6-0.1s0.4-0.1,0.5-0.1s0.2-0.2,0.2-0.3c0-0.2,0-0.3,0-0.4c0-0.4-0.1-0.8-0.5-1.1
		s-0.6-0.4-1.2-0.4s-1.1,0.1-1.5,0.4s-0.5,0.6-0.6,1.2h-0.9c0-0.8,0.4-1.4,0.9-1.8c0.5-0.4,1.2-0.6,2-0.6c0.8,0,1.5,0.2,1.9,0.6
		c0.5,0.3,0.7,0.9,0.7,1.7v4c0,0.4,0.1,0.6,0.4,0.6c0.1,0,0.3-0.1,0.5-0.1V15c-0.1,0.1-0.2,0.1-0.4,0.1c-0.1,0.1-0.2,0.1-0.3,0.1
		s-0.2,0-0.4-0.1c-0.2-0.1-0.4-0.1-0.5-0.4C39,14.4,39,14.3,39,13.9c-0.4,0.4-0.8,0.7-1.2,0.9s-1,0.3-1.5,0.3
		c-0.6,0-1.2-0.2-1.7-0.6s-0.7-0.9-0.7-1.5c0-1.2,0.9-1.9,2.5-2.2H37.7z M39.1,11.2c-0.3,0.1-0.6,0.2-1,0.2
		c-0.3,0.1-0.7,0.1-1.2,0.1c-0.6,0.1-1.1,0.2-1.5,0.4s-0.5,0.6-0.5,1.1c0,0.4,0.1,0.8,0.5,0.9c0.3,0.2,0.6,0.4,1.1,0.4
		c0.4,0,0.6-0.1,1-0.1c0.3-0.1,0.6-0.2,0.9-0.4c0.2-0.1,0.5-0.4,0.6-0.6c0.1-0.2,0.2-0.6,0.2-0.9L39.1,11.2L39.1,11.2z"/>
	<path d="M43,15h-0.9V7.8H43v1.3l0,0c0.3-0.5,0.5-0.9,0.9-1.1c0.4-0.2,0.9-0.3,1.4-0.3v0.9c-0.5,0-0.9,0.1-1.1,0.2
		c-0.3,0.1-0.5,0.3-0.8,0.6c-0.3,0.3-0.3,0.6-0.4,0.9c0,0.4-0.1,0.8-0.1,1.2L43,15L43,15z"/>
</g>
<rect x="58.6" y="0" class="st0" width="1" height="20"/>
</svg>
