<svg width="24" height="24" fill="none" xmlns="http://www.w3.org/2000/svg"><path fill-rule="evenodd" clip-rule="evenodd" d="M12 23a11 11 0 1 0 0-22 11 11 0 0 0 0 22Zm0 1a12 12 0 1 0 0-24 12 12 0 0 0 0 24Z" fill="#CDB181"/><path fill-rule="evenodd" clip-rule="evenodd" d="M12 6c.41 0 .75.34.75.75v10.5a.75.75 0 0 1-1.5 0V6.75c0-.41.34-.75.75-.75Z" fill="#CDB181"/><path fill-rule="evenodd" clip-rule="evenodd" d="M6 12c0-.41.34-.75.75-.75h10.5a.75.75 0 0 1 0 1.5H6.75A.75.75 0 0 1 6 12Z" fill="#CDB181"/></svg>