<?xml version="1.0" encoding="utf-8"?>
<!-- Generator: Adobe Illustrator 27.2.0, SVG Export Plug-In . SVG Version: 6.00 Build 0)  -->
<svg version="1.1" id="Calque_1" xmlns="http://www.w3.org/2000/svg" xmlns:xlink="http://www.w3.org/1999/xlink" x="0px" y="0px"
	 viewBox="0 0 27 27" style="enable-background:new 0 0 27 27;" xml:space="preserve">
<style type="text/css">
	.st0{fill:#CDB181;}
</style>
<g>
	<path class="st0" d="M13.5,27C6.1,27,0,20.9,0,13.5C0,6.1,6.1,0,13.5,0C20.9,0,27,6.1,27,13.5C27,20.9,20.9,27,13.5,27z M13.5,1
		C6.6,1,1,6.6,1,13.5S6.6,26,13.5,26S26,20.4,26,13.5S20.4,1,13.5,1z"/>
</g>
<g>
	<path class="st0" d="M9.6,19.1l0-12.1L20,13L9.6,19.1z M10.6,8.7l0,8.6L18,13L10.6,8.7z"/>
</g>
</svg>
