<?xml version="1.0" encoding="utf-8"?>
<!-- Generator: Adobe Illustrator 25.2.1, SVG Export Plug-In . SVG Version: 6.00 Build 0)  -->
<svg version="1.1" id="Layer_1" xmlns="http://www.w3.org/2000/svg" xmlns:xlink="http://www.w3.org/1999/xlink" x="0px" y="0px"
	 viewBox="0 0 818 512" style="enable-background:new 0 0 818 512;" xml:space="preserve">
<path d="M562,8C425,8,314,119,314,256s111,248,248,248s248-111,248-248S699,8,562,8z M683.6,321.1c4.7,4.7,4.7,12.3,0,17L644,377.6
	c-4.7,4.7-12.3,4.7-17,0L562,312l-65.1,65.6c-4.7,4.7-12.3,4.7-17,0L440.4,338c-4.7-4.7-4.7-12.3,0-17l65.6-65l-65.6-65.1
	c-4.7-4.7-4.7-12.3,0-17l39.6-39.6c4.7-4.7,12.3-4.7,17,0l65,65.7l65.1-65.6c4.7-4.7,12.3-4.7,17,0l39.6,39.6c4.7,4.7,4.7,12.3,0,17
	L618,256L683.6,321.1z"/>
</svg>
